<?xml version="1.0" encoding="utf-8"?>
<svg xmlns="http://www.w3.org/2000/svg" viewBox="-197.2639 71.6171 867.3449 230.7362" width="867.345px" height="230.736px">
  <g transform="matrix(0.10000000149011612, 0, 0, -0.10000000149011612, -227.5743408203125, 329.369873046875)" fill="#000000" stroke="none">
    <path d="M915 2574 c-283 -44 -508 -244 -587 -521 -17 -60 -22 -103 -22 -188 1 -128 18 -204 72 -315 34 -70 66 -105 435 -483 219 -224 397 -413 395 -420 -2 -6 -26 -23 -53 -37 -43 -22 -63 -25 -150 -25 -93 0 -105 2 -166 32 -122 60 -201 172 -221 316 l-10 72 -111 113 c-62 61 -119 112 -129 112 -24 0 -55 -105 -63 -212 -16 -209 70 -419 231 -567 78 -71 213 -141 322 -167 106 -25 279 -15 384 21 136 47 178 82 584 487 316 315 385 379 405 376 20 -2 28 -15 47 -68 32 -91 27 -210 -13 -293 -58 -124 -209 -226 -333 -227 -50 0 -79 -20 -185 -129 -65 -66 -98 -106 -95 -118 9 -50 261 -80 407 -49 236 50 434 228 517 466 20 58 27 102 31 191 7 144 -11 234 -69 352 -44 88 -67 114 -611 663 -158 159 -218 226 -215 240 8 44 149 77 259 62 139 -19 257 -118 308 -259 7 -19 16 -63 21 -99 l9 -64 114 -113 c80 -80 119 -112 130 -107 41 15 72 263 48 386 -25 137 -108 286 -211 382 -234 216 -575 254 -847 95 -41 -24 -175 -150 -449 -421 -215 -215 -398 -388 -408 -388 -41 0 -79 155 -64 262 24 182 165 309 367 334 54 6 59 10 159 108 117 114 130 132 110 151 -34 33 -248 63 -343 49z m685 -495 c-3 -13 -5 -60 -5 -104 1 -64 6 -89 24 -125 15 -28 116 -138 272 -295 137 -138 249 -257 249 -264 0 -9 -12 -10 -47 -4 -77 13 -139 6 -200 -22 -47 -21 -100 -69 -303 -270 -135 -135 -250 -245 -255 -245 -6 0 -10 44 -10 102 0 81 -4 110 -19 138 -10 19 -136 153 -280 298 -270 273 -283 291 -192 270 55 -13 136 -3 194 24 34 16 117 91 302 275 140 139 260 251 265 249 6 -1 8 -14 5 -27z"/>
    <path d="M3200 1425 l0 -805 570 0 570 0 0 145 0 145 -395 0 -395 0 0 660 0 660 -175 0 -175 0 0 -805z"/>
    <path d="M6420 1807 c-82 -19 -149 -58 -208 -121 -29 -31 -55 -56 -58 -56 -2 0 -4 36 -4 80 l0 80 -150 0 -150 0 0 -585 0 -585 159 0 159 0 4 378 c3 369 4 378 26 427 45 97 103 137 203 136 62 0 102 -15 135 -53 44 -49 47 -73 52 -490 l4 -398 158 0 159 0 3 393 c3 390 3 392 27 440 42 85 121 122 229 107 57 -8 92 -36 122 -96 l25 -49 3 -397 3 -398 160 0 160 0 -3 448 c-4 495 -5 502 -71 599 -69 101 -176 146 -348 147 -103 0 -108 -1 -182 -37 -53 -26 -90 -54 -126 -93 -29 -31 -53 -55 -54 -53 -2 2 -15 23 -30 46 -53 83 -144 129 -274 137 -47 4 -100 0 -133 -7z"/>
    <path d="M8305 1809 c-232 -24 -387 -150 -421 -341 l-6 -38 159 0 160 0 12 43 c16 55 65 105 115 118 57 15 168 12 213 -6 48 -20 74 -56 81 -111 6 -55 -13 -101 -49 -120 -38 -19 -134 -40 -254 -54 -107 -12 -228 -40 -289 -65 -53 -22 -126 -92 -148 -143 -74 -165 -17 -370 122 -446 69 -38 153 -56 255 -56 138 0 253 37 346 111 l39 31 0 -31 c0 -16 4 -41 10 -55 l10 -26 161 0 c150 0 161 1 154 17 -4 10 -12 32 -18 48 -6 18 -13 199 -16 460 -7 468 -6 457 -67 532 -60 73 -170 117 -329 133 -113 11 -128 11 -240 -1z m300 -854 c-30 -92 -101 -143 -213 -152 -156 -13 -243 59 -221 181 4 21 16 50 26 65 27 35 115 69 215 82 86 11 175 34 193 51 18 17 18 -170 0 -227z"/>
    <path d="M4502 1358 c4 -364 7 -442 21 -491 57 -197 170 -277 394 -277 151 0 265 49 336 145 17 24 35 44 40 45 4 0 7 -36 7 -80 l0 -80 150 0 150 0 0 585 0 585 -159 0 -160 0 -4 -377 c-4 -402 -5 -414 -55 -487 -41 -59 -91 -81 -187 -81 -93 0 -129 14 -162 64 -44 65 -46 88 -50 494 l-4 387 -161 0 -160 0 4 -432z"/>
  </g>
</svg>